name C:/MyDriveSym/Projects/mobilecap/Data\Session20210827_0002\mocap\ForceDataProcessed\walking2_forces.mot
datacolumns 19
datarows 9
range 0.65450000 0.65850000
endheader 
time	R_ground_force_vx	R_ground_force_vy	R_ground_force_vz	R_ground_force_px	R_ground_force_py	R_ground_force_pz	R_ground_torque_x	R_ground_torque_y	R_ground_torque_z	L_ground_force_vx	L_ground_force_vy	L_ground_force_vz	L_ground_force_px	L_ground_force_py	L_ground_force_pz	L_ground_torque_x	L_ground_torque_y	L_ground_torque_z	
          0.65450000	         64.28679400	        293.69019400	         -3.74537700	          0.35220300	          0.00600000	         -0.15673200	          0.00000000	         -1.60446000	          0.00000000	        -49.39790100	        402.61204100	         10.85816100	          0.84423600	          0.00600000	         -0.27879100	          0.00000000	          0.76964500	          0.00000000	
          0.65500000	         63.87999600	        291.16209800	         -3.68109700	          0.35231400	          0.00600000	         -0.15671500	          0.00000000	         -1.58708000	          0.00000000	        -49.84311500	        404.74883500	         11.03132100	          0.84446100	          0.00600000	         -0.27880100	          0.00000000	          0.77058600	          0.00000000	
          0.65550000	         63.47196600	        288.63850100	         -3.61740200	          0.35242700	          0.00600000	         -0.15669700	          0.00000000	         -1.56977800	          0.00000000	        -50.28695600	        406.87996200	         11.20486300	          0.84468600	          0.00600000	         -0.27881000	          0.00000000	          0.77149700	          0.00000000	
          0.65600000	         63.06275100	        286.11957700	         -3.55429200	          0.35253900	          0.00600000	         -0.15667900	          0.00000000	         -1.55255500	          0.00000000	        -50.72937700	        409.00529400	         11.37877100	          0.84491000	          0.00600000	         -0.27881900	          0.00000000	          0.77237800	          0.00000000	
          0.65650000	         62.65240000	        283.60550100	         -3.49176900	          0.35265300	          0.00600000	         -0.15666100	          0.00000000	         -1.53541100	          0.00000000	        -51.17033000	        411.12470500	         11.55302700	          0.84513400	          0.00600000	         -0.27882800	          0.00000000	          0.77322900	          0.00000000	
          0.65700000	         62.24095900	        281.09644500	         -3.42983300	          0.35276700	          0.00600000	         -0.15664300	          0.00000000	         -1.51834600	          0.00000000	        -51.60976800	        413.23807200	         11.72761200	          0.84535700	          0.00600000	         -0.27883700	          0.00000000	          0.77404800	          0.00000000	
          0.65750000	         61.82847500	        278.59258100	         -3.36848600	          0.35288200	          0.00600000	         -0.15662500	          0.00000000	         -1.50136100	          0.00000000	        -52.04764600	        415.34527000	         11.90250800	          0.84558000	          0.00600000	         -0.27884500	          0.00000000	          0.77483700	          0.00000000	
          0.65800000	         61.41499500	        276.09407700	         -3.30772600	          0.35299700	          0.00600000	         -0.15660600	          0.00000000	         -1.48445600	          0.00000000	        -52.48391700	        417.44618100	         12.07769800	          0.84580200	          0.00600000	         -0.27885300	          0.00000000	          0.77559500	          0.00000000	
          0.65850000	         61.00056700	        273.60110200	         -3.24755500	          0.35311300	          0.00600000	         -0.15658700	          0.00000000	         -1.46763100	          0.00000000	        -52.91853800	        419.54068300	         12.25316500	          0.84602400	          0.00600000	         -0.27886100	          0.00000000	          0.77632200	          0.00000000	
